<?xml version="1.0" encoding="UTF-8" standalone="no"?><!DOCTYPE svg PUBLIC "-//W3C//DTD SVG 1.1//EN" "http://www.w3.org/Graphics/SVG/1.1/DTD/svg11.dtd"><svg width="100%" height="100%" viewBox="0 0 740 400" version="1.1" xmlns="http://www.w3.org/2000/svg" xmlns:xlink="http://www.w3.org/1999/xlink" xml:space="preserve" style="fill-rule:evenodd;clip-rule:evenodd;"><rect x="33.969" y="167.411" width="150.215" height="113.153" style="fill:#56b4e9;"/><rect x="210.605" y="167.411" width="150.215" height="46.445" style="fill:#009e73;"/><rect x="210.605" y="234.119" width="503.485" height="46.445" style="fill:#818181;"/><rect x="387.24" y="167.411" width="150.215" height="46.445" style="fill:#d55e00;"/><rect x="563.875" y="167.411" width="150.215" height="46.445" style="fill:#cc79a7;"/><clipPath id="_clip1"><rect x="61.741" y="44.337" width="104.906" height="104.906"/></clipPath><g clip-path="url(#_clip1)"><path d="M105.451,48.709l17.484,0c3.28,0 3.28,3.278 3.28,3.278l-0.438,24.041c0,0 -2.842,1.092 -11.584,1.092c-8.742,0 -11.363,-1.092 -11.363,-1.092l-0.656,-24.041c0,0 0,-3.278 3.277,-3.278Z" style="fill-rule:nonzero;"/><path d="M102.174,77.12c0,0 3.277,1.093 12.019,1.093c8.742,0 12.022,-1.093 12.022,-1.093l-0.438,4.372c0,0 -2.842,1.093 -11.584,1.093c-8.742,0 -11.583,-1.093 -11.583,-1.093l-0.436,-4.372Z" style="fill-rule:nonzero;"/><path d="M103.266,82.585c0,0 4.373,0.874 10.927,0.874c6.557,0 10.929,-0.874 10.929,-0.874l-0.438,12.457l-10.491,8.086l-10.488,-8.086l-0.439,-12.457Z" style="fill-rule:nonzero;"/><path d="M104.14,100.069l8.087,6.118l0,2.842l-7.43,4.152l-0.657,-13.112Z" style="fill-rule:nonzero;"/><path d="M116.16,106.406l8.088,-6.119l-0.656,13.114l-7.432,-4.372l0,-2.623Z" style="fill-rule:nonzero;"/><path d="M106.544,116.46l7.649,-4.372l7.65,4.372l-15.299,0Z" style="fill-rule:nonzero;"/><path d="M105.015,120.83c0,0 2.624,0.438 9.178,0.438c6.557,0 9.18,-0.438 9.18,-0.438l0,0.656l-9.18,6.339l-9.178,-6.339l0,-0.656Z" style="fill-rule:nonzero;"/><path d="M115.942,133.945l0,-3.06l0.657,-0.439c4.151,0 6.557,-1.528 6.557,-1.528l-3.06,5.244c0,0 -1.53,0.875 -2.623,0.875l-1.531,-1.092Z" style="fill-rule:nonzero;"/><path d="M105.233,128.918c0,0 2.406,1.528 6.557,1.528l0.656,0.439l0,3.06l-1.53,1.092c-1.093,0 -2.623,-0.875 -2.623,-0.875l-3.06,-5.244Z" style="fill-rule:nonzero;"/><path d="M134.064,88.938l0.167,0.037l0.162,0.059l0.152,0.079l0.14,0.099l0.127,0.116l0.11,0.131l0.092,0.145l0.073,0.155l0.051,0.164l0.03,0.169l0.007,0.171l-0.014,0.171l-3.491,22.685l0.222,0.01l0.405,0.019l0.409,0.021l0.412,0.022l0.413,0.023l0.415,0.026l0.415,0.026l0.414,0.029l0.414,0.03l0.411,0.032l0.408,0.034l0.405,0.036l0.401,0.038l0.396,0.039l0.39,0.042l0.383,0.045l0.19,0.023l0.188,0.023l0.185,0.024l0.184,0.025l0.181,0.026l0.179,0.026l0.177,0.026l0.175,0.028l0.172,0.028l0.17,0.028l0.167,0.03l0.165,0.03l0.162,0.031l0.16,0.032l0.156,0.033l0.154,0.033l0.151,0.035l0.149,0.035l0.145,0.037l0.143,0.038l0.14,0.038l0.137,0.041l0.134,0.041l0.132,0.043l0.129,0.045l0.126,0.047l0.125,0.049l0.122,0.052l0.12,0.054l0.114,0.056l0.063,0.033l0.059,0.031l0.058,0.033l0.057,0.034l0.058,0.036l0.057,0.037l0.057,0.039l0.057,0.041l0.057,0.043l0.057,0.045l0.056,0.048l0.056,0.051l0.056,0.054l0.055,0.057l0.054,0.061l0.054,0.065l0.052,0.07l0.05,0.073l0.048,0.078l0.046,0.084l0.042,0.087l0.039,0.092l0.034,0.097l0.028,0.1l0.023,0.103l0.017,0.106l0.01,0.107l0.004,0.12l-0.008,0.146l-0.024,0.155l-0.038,0.149l-0.05,0.138l-0.059,0.128l-0.066,0.115l-0.07,0.104l-0.074,0.093l-0.074,0.083l-0.074,0.075l-0.075,0.067l-0.074,0.06l-0.073,0.055l-0.073,0.051l-0.072,0.046l-0.072,0.043l-0.072,0.04l-0.072,0.037l-0.072,0.036l-0.072,0.034l-0.072,0.032l-0.074,0.03l-0.073,0.03l-0.075,0.028l-0.076,0.028l-0.076,0.026l-0.078,0.026l-0.078,0.025l-0.08,0.025l-0.084,0.024l-0.162,0.046l-0.172,0.044l-0.176,0.043l-0.182,0.041l-0.188,0.041l-0.194,0.039l-0.199,0.038l-0.205,0.037l-0.211,0.036l-0.217,0.035l-0.222,0.034l-0.227,0.034l-0.233,0.032l-0.239,0.032l-0.243,0.032l-0.248,0.03l-0.254,0.03l-0.258,0.029l-0.263,0.029l-0.268,0.028l-0.272,0.027l-0.276,0.027l-0.28,0.026l-0.285,0.025l-0.288,0.025l-0.292,0.024l-0.296,0.024l-0.299,0.023l-0.303,0.022l-0.612,0.044l-0.625,0.041l-0.635,0.04l-0.643,0.037l-0.651,0.035l-0.657,0.034l-0.235,0.011l2.108,27.381l0.002,0.171l-0.021,0.17l-0.042,0.167l-0.064,0.159l-0.084,0.149l-0.103,0.138l-0.12,0.122l-0.135,0.106l-0.147,0.088l-0.158,0.067l-0.165,0.046l-0.17,0.025l-0.172,0.002l-0.17,-0.021l-0.166,-0.042l-0.159,-0.064l-0.15,-0.084l-0.137,-0.103l-0.123,-0.12l-0.106,-0.135l-0.087,-0.147l-0.068,-0.158l-0.046,-0.165l-0.024,-0.17l-2.114,-27.47l-0.477,0.018l-0.667,0.024l-0.664,0.021l-0.661,0.021l-0.655,0.019l-0.649,0.017l-0.64,0.017l-0.632,0.015l-0.62,0.014l-0.609,0.012l-0.596,0.012l-0.582,0.011l-1.115,0.018l-1.041,0.014l-0.959,0.011l-0.864,0.009l-0.76,0.006l-0.646,0.004l-0.52,0.003l-0.386,0.001l-0.322,0l-0.298,0l-0.356,-0.001l-0.481,-0.003l-0.596,-0.004l-0.702,-0.006l-0.798,-0.009l-0.885,-0.011l-0.962,-0.014l-1.029,-0.019l-0.537,-0.01l-0.551,-0.012l-0.562,-0.012l-0.574,-0.014l-0.583,-0.015l-0.591,-0.017l-0.599,-0.017l-0.605,-0.019l-0.611,-0.021l-0.613,-0.022l-0.617,-0.023l-0.617,-0.025l-0.618,-0.026l-0.273,-0.013l-2.118,27.516l-0.024,0.17l-0.047,0.165l-0.067,0.158l-0.088,0.147l-0.105,0.135l-0.123,0.12l-0.137,0.103l-0.15,0.084l-0.159,0.064l-0.166,0.042l-0.171,0.021l-0.171,-0.002l-0.17,-0.025l-0.165,-0.046l-0.158,-0.067l-0.147,-0.088l-0.135,-0.106l-0.12,-0.122l-0.103,-0.138l-0.084,-0.149l-0.064,-0.159l-0.042,-0.167l-0.021,-0.17l0.002,-0.171l2.113,-27.452l-0.159,-0.009l-0.595,-0.038l-0.587,-0.039l-0.577,-0.042l-0.567,-0.043l-0.28,-0.023l-0.276,-0.023l-0.274,-0.024l-0.27,-0.024l-0.267,-0.025l-0.263,-0.025l-0.259,-0.026l-0.256,-0.027l-0.252,-0.028l-0.248,-0.027l-0.243,-0.029l-0.24,-0.029l-0.235,-0.03l-0.23,-0.031l-0.226,-0.031l-0.221,-0.033l-0.216,-0.033l-0.212,-0.033l-0.206,-0.035l-0.202,-0.035l-0.196,-0.037l-0.191,-0.037l-0.186,-0.038l-0.181,-0.04l-0.176,-0.041l-0.171,-0.042l-0.165,-0.043l-0.161,-0.046l-0.157,-0.047l-0.148,-0.048l-0.078,-0.027l-0.074,-0.027l-0.072,-0.027l-0.073,-0.029l-0.071,-0.029l-0.07,-0.031l-0.071,-0.031l-0.069,-0.034l-0.07,-0.035l-0.069,-0.037l-0.069,-0.039l-0.07,-0.042l-0.069,-0.045l-0.07,-0.048l-0.07,-0.053l-0.071,-0.057l-0.07,-0.063l-0.071,-0.069l-0.071,-0.076l-0.069,-0.085l-0.068,-0.093l-0.065,-0.103l-0.06,-0.114l-0.053,-0.123l-0.044,-0.133l-0.033,-0.14l-0.021,-0.146l-0.006,-0.136l0.003,-0.11l0.008,-0.097l0.013,-0.096l0.019,-0.095l0.023,-0.092l0.028,-0.09l0.031,-0.087l0.035,-0.084l0.039,-0.08l0.041,-0.076l0.044,-0.073l0.045,-0.069l0.048,-0.066l0.048,-0.062l0.05,-0.059l0.05,-0.056l0.051,-0.053l0.052,-0.05l0.052,-0.048l0.052,-0.045l0.053,-0.044l0.053,-0.041l0.054,-0.04l0.053,-0.037l0.054,-0.037l0.059,-0.038l0.103,-0.063l0.11,-0.061l0.112,-0.058l0.112,-0.054l0.115,-0.052l0.116,-0.049l0.118,-0.047l0.12,-0.045l0.122,-0.043l0.124,-0.041l0.126,-0.04l0.129,-0.039l0.13,-0.038l0.134,-0.036l0.135,-0.035l0.138,-0.035l0.139,-0.033l0.143,-0.033l0.144,-0.031l0.146,-0.031l0.149,-0.03l0.151,-0.029l0.152,-0.028l0.155,-0.028l0.157,-0.027l0.159,-0.027l0.16,-0.025l0.162,-0.025l0.164,-0.025l0.165,-0.023l0.169,-0.024l0.337,-0.044l0.344,-0.042l0.348,-0.041l0.353,-0.038l0.357,-0.036l0.359,-0.034l0.361,-0.032l0.364,-0.03l0.364,-0.029l0.364,-0.027l0.364,-0.025l0.363,-0.023l0.362,-0.023l0.114,-0.006l-3.498,-22.729l-0.015,-0.171l0.008,-0.171l0.03,-0.169l0.051,-0.164l0.073,-0.155l0.092,-0.145l0.11,-0.131l0.127,-0.116l0.14,-0.099l0.152,-0.079l0.161,-0.059l0.168,-0.037l0.171,-0.015l0.171,0.008l0.169,0.03l0.164,0.051l0.155,0.073l0.145,0.092l0.131,0.11l0.116,0.127l0.098,0.14l0.08,0.152l0.058,0.162l0.037,0.167l3.541,23.007l0.315,-0.011l0.604,-0.018l0.564,-0.015l0.52,-0.011l0.469,-0.009l0.412,-0.006l0.35,-0.004l0.283,-0.002l0.21,-0.002l0.174,0l0.171,0.011l0.169,0.032l0.162,0.055l0.154,0.076l0.143,0.094l0.129,0.113l0.114,0.129l0.096,0.142l0.076,0.154l0.056,0.162l0.034,0.168l0.011,0.171l-0.01,0.171l-0.033,0.169l-0.055,0.162l-0.075,0.154l-0.095,0.143l-0.113,0.13l-0.128,0.113l-0.143,0.096l-0.153,0.076l-0.163,0.056l-0.168,0.034l-0.171,0.011l-0.17,0.001l-0.202,0.001l-0.276,0.003l-0.342,0.004l-0.404,0.006l-0.46,0.008l-0.509,0.011l-0.554,0.015l-0.591,0.017l0.209,1.358l0.553,0.026l0.611,0.026l0.611,0.024l0.61,0.024l0.608,0.021l0.605,0.02l0.599,0.019l0.594,0.018l0.587,0.016l0.579,0.015l0.569,0.014l0.558,0.012l0.547,0.012l0.533,0.01l1.023,0.018l0.956,0.015l0.879,0.011l0.792,0.008l0.698,0.006l0.591,0.004l0.477,0.003l0.351,0.001l0.291,0.001l0.316,-0.001l0.381,-0.001l0.517,-0.003l0.641,-0.004l0.756,-0.006l0.859,-0.008l0.953,-0.011l1.036,-0.015l1.109,-0.018l0.577,-0.01l0.593,-0.012l0.605,-0.012l0.617,-0.014l0.627,-0.015l0.636,-0.016l0.644,-0.018l0.651,-0.019l0.655,-0.02l0.659,-0.022l0.662,-0.023l0.662,-0.024l0.061,-0.003l0.218,-1.42l-0.167,-0.004l-0.634,-0.015l-0.584,-0.011l-0.526,-0.008l-0.463,-0.006l-0.392,-0.004l-0.316,-0.003l-0.233,-0.001l-0.194,-0.001l-0.172,-0.011l-0.168,-0.034l-0.162,-0.056l-0.154,-0.076l-0.142,-0.096l-0.129,-0.113l-0.112,-0.129l-0.095,-0.143l-0.076,-0.154l-0.054,-0.163l-0.033,-0.168l-0.011,-0.171l0.012,-0.172l0.033,-0.168l0.056,-0.162l0.076,-0.154l0.096,-0.142l0.113,-0.129l0.13,-0.112l0.143,-0.095l0.154,-0.076l0.162,-0.054l0.169,-0.033l0.171,-0.011l0.198,0l0.239,0.002l0.322,0.002l0.4,0.004l0.47,0.006l0.534,0.009l0.592,0.011l0.644,0.015l0.505,0.013l3.538,-22.991l0.038,-0.167l0.058,-0.162l0.079,-0.152l0.099,-0.14l0.116,-0.127l0.131,-0.11l0.145,-0.092l0.155,-0.073l0.164,-0.051l0.169,-0.03l0.171,-0.008l0.171,0.015Zm-2.983,28.004l0.552,-0.029l0.642,-0.035l0.633,-0.036l0.624,-0.039l0.613,-0.041l0.602,-0.042l0.295,-0.022l0.292,-0.023l0.288,-0.023l0.284,-0.024l0.28,-0.024l0.276,-0.024l0.271,-0.025l0.267,-0.026l0.262,-0.026l0.256,-0.027l0.252,-0.027l0.246,-0.028l0.241,-0.029l0.235,-0.029l0.229,-0.029l-0.015,-0.002l-0.165,-0.024l-0.168,-0.024l-0.172,-0.023l-0.173,-0.022l-0.176,-0.022l-0.177,-0.022l-0.365,-0.042l-0.372,-0.04l-0.378,-0.038l-0.385,-0.037l-0.39,-0.034l-0.395,-0.033l-0.399,-0.031l-0.401,-0.029l-0.403,-0.028l-0.405,-0.026l-0.404,-0.024l-0.405,-0.023l-0.402,-0.022l-0.401,-0.02l-0.398,-0.019l-0.394,-0.017l-0.11,-0.005l-0.187,1.215Zm-33.965,-1.175l-0.349,0.021l-0.352,0.021l-0.352,0.023l-0.353,0.024l-0.352,0.026l-0.352,0.028l-0.349,0.029l-0.347,0.031l-0.344,0.032l-0.339,0.035l-0.335,0.036l-0.329,0.038l-0.323,0.04l-0.317,0.041l-0.153,0.022l-0.152,0.021l-0.151,0.023l-0.148,0.023l-0.146,0.023l-0.099,0.017l0.106,0.015l0.211,0.029l0.215,0.029l0.222,0.028l0.226,0.028l0.231,0.027l0.237,0.027l0.241,0.026l0.245,0.026l0.25,0.025l0.254,0.024l0.258,0.024l0.261,0.024l0.266,0.023l0.268,0.022l0.272,0.022l0.554,0.043l0.565,0.041l0.575,0.038l0.365,0.023l-0.169,-1.098l-0.011,0Z"/><path d="M94.524,90.234l19.669,15.297l19.671,-15.297m-19.671,15.297l0,4.372l-15.297,8.742m15.297,-8.742l15.3,8.742m-30.597,0.874l15.297,10.927l0,4.373l-17.484,13.112m32.784,-28.412l-15.3,10.927m0,4.373l17.486,13.112" style="fill:none;stroke:#000;stroke-width:1.75px;"/></g><text x="74.721px" y="231.855px" style="font-family:'FiraSans-Light', 'Fira Sans', sans-serif;font-weight:300;font-size:24px;fill:#fff;">V<tspan x="87.105px " y="231.855px ">o</tspan>cals</text><text x="249.7px" y="198.049px" style="font-family:'FiraSans-Light', 'Fira Sans', sans-serif;font-weight:300;font-size:24px;fill:#fff;">Drums</text><text x="374.615px" y="264.145px" style="font-family:'FiraSans-Light', 'Fira Sans', sans-serif;font-weight:300;font-size:24px;fill:#fff;">A<tspan x="388.055px 399.071px 410.087px " y="264.145px 264.145px 264.145px ">cco</tspan>mpaniment</text><text x="436.535px" y="196.979px" style="font-family:'FiraSans-Light', 'Fira Sans', sans-serif;font-weight:300;font-size:24px;fill:#fff;">Bass</text><text x="607.398px" y="197.687px" style="font-family:'FiraSans-Light', 'Fira Sans', sans-serif;font-weight:300;font-size:24px;fill:#fff;">O<tspan x="624.27px " y="197.687px ">t</tspan>her</text><path d="M322.917,62.478l0.329,0.056l0.324,0.084l0.314,0.111l0.304,0.138l0.292,0.163l0.276,0.187l0.26,0.209l0.241,0.231l0.221,0.251l0.198,0.268l0.175,0.285l0.151,0.298l0.124,0.309l0.098,0.32l0.07,0.326l0.043,0.331l0.014,0.334l0,73.413l-0.014,0.333l-0.043,0.331l-0.07,0.327l-0.098,0.319l-0.124,0.31l-0.151,0.298l-0.175,0.284l-0.198,0.268l-0.221,0.251l-0.241,0.231l-0.26,0.21l-0.276,0.187l-0.292,0.163l-0.304,0.137l-0.314,0.111l-0.324,0.084l-0.329,0.057l-0.332,0.028l-0.334,0l-0.333,-0.028l-0.329,-0.057l-0.323,-0.084l-0.314,-0.111l-0.305,-0.137l-0.291,-0.163l-0.277,-0.187l-0.259,-0.21l-0.241,-0.231l-0.221,-0.251l-0.198,-0.268l-0.175,-0.284l-0.151,-0.298l-0.124,-0.31l-0.098,-0.319l-0.07,-0.327l-0.043,-0.331l-0.014,-0.333l0,-73.413l0.014,-0.334l0.043,-0.331l0.07,-0.326l0.098,-0.32l0.124,-0.309l0.151,-0.298l0.175,-0.285l0.198,-0.268l0.221,-0.251l0.241,-0.231l0.259,-0.209l0.277,-0.187l0.291,-0.163l0.305,-0.138l0.314,-0.111l0.323,-0.084l0.329,-0.056l0.333,-0.029l0.334,0l0.332,0.029Z"/><g><path d="M322.418,69.002l18.353,5.242l-36.706,0l18.353,-5.242Z" style="fill-rule:nonzero;"/><path d="M346.046,74.388l-0.163,1.167l-46.93,0l-0.163,-1.167l23.628,-6.749l23.628,6.749Zm-32.619,-1.455l17.981,0l-8.99,-2.568l-8.991,2.568Z"/></g><g><path d="M322.418,84.732l18.353,-5.242l-36.706,0l18.353,5.242Z" style="fill-rule:nonzero;"/><path d="M346.046,79.346l-23.628,6.749l-23.628,-6.749l0.163,-1.167l46.93,0l0.163,1.167Zm-32.619,1.455l8.991,2.568l8.991,-2.568l-17.982,0Z"/></g><path d="M238.519,92.598l23.596,0c1.452,0 2.622,1.169 2.622,2.621l0,15.732c0,1.453 -1.17,2.621 -2.622,2.621l-23.596,0c-1.455,0 -2.623,-1.168 -2.623,-2.621l0,-15.732c0,-1.452 1.168,-2.621 2.623,-2.621Z" style="fill-rule:nonzero;"/><path d="M309.309,92.598l23.596,0c1.452,0 2.621,1.169 2.621,2.621l0,15.732c0,1.453 -1.169,2.621 -2.621,2.621l-23.596,0c-1.452,0 -2.621,-1.168 -2.621,-2.621l0,-15.732c0,-1.452 1.169,-2.621 2.621,-2.621Z" style="fill-rule:nonzero;"/><path d="M249.534,51.994l0.348,0.063l0.34,0.094l0.33,0.124l0.318,0.153l0.303,0.181l0.286,0.207l0.265,0.232l0.244,0.255l0.22,0.276l0.195,0.295l0.167,0.311l0.139,0.324l0.109,0.336l0.078,0.344l0.048,0.349l0.015,0.353l0,83.901l-0.015,0.352l-0.048,0.35l-0.078,0.344l-0.109,0.336l-0.139,0.324l-0.167,0.311l-0.195,0.294l-0.22,0.276l-0.244,0.255l-0.265,0.233l-0.286,0.207l-0.303,0.181l-0.318,0.153l-0.33,0.124l-0.34,0.094l-0.348,0.063l-0.351,0.032l-0.353,0l-0.351,-0.032l-0.348,-0.063l-0.34,-0.094l-0.33,-0.124l-0.318,-0.153l-0.303,-0.181l-0.286,-0.207l-0.265,-0.233l-0.244,-0.255l-0.22,-0.276l-0.195,-0.294l-0.167,-0.311l-0.139,-0.324l-0.109,-0.336l-0.078,-0.344l-0.047,-0.35l-0.016,-0.352l0,-83.901l0.016,-0.353l0.047,-0.349l0.078,-0.344l0.109,-0.336l0.139,-0.324l0.167,-0.311l0.195,-0.295l0.22,-0.276l0.244,-0.255l0.265,-0.232l0.286,-0.207l0.303,-0.181l0.318,-0.153l0.33,-0.124l0.34,-0.094l0.348,-0.063l0.351,-0.032l0.353,0l0.351,0.032Z"/><path d="M269.523,60.253c-1.205,5.665 -11.366,8.305 -22.699,5.898c-11.329,-2.41 -19.539,-8.954 -18.336,-14.621c1.205,-5.665 11.368,-8.306 22.698,-5.896c11.332,2.408 19.542,8.954 18.337,14.619Z" style="fill-rule:nonzero;"/><g><path d="M285.711,103.085l28.841,36.707" style="fill-rule:nonzero;"/><path d="M285.943,99.159l0.236,0.021l0.235,0.036l0.233,0.049l0.228,0.064l0.225,0.077l0.22,0.091l0.213,0.103l0.208,0.117l0.199,0.128l0.192,0.141l0.182,0.152l0.174,0.162l0.163,0.173l0.152,0.182l28.841,36.707l0.141,0.191l0.129,0.2l0.117,0.206l0.105,0.214l0.091,0.219l0.078,0.225l0.064,0.228l0.05,0.232l0.036,0.235l0.022,0.237l0.007,0.237l-0.006,0.238l-0.022,0.236l-0.035,0.235l-0.049,0.233l-0.064,0.229l-0.077,0.224l-0.091,0.22l-0.103,0.214l-0.117,0.207l-0.129,0.199l-0.14,0.192l-0.152,0.183l-0.163,0.173l-0.172,0.163l-0.183,0.152l-0.191,0.141l-0.199,0.13l-0.207,0.117l-0.213,0.104l-0.22,0.091l-0.224,0.078l-0.229,0.064l-0.232,0.05l-0.235,0.036l-0.236,0.022l-0.238,0.008l-0.237,-0.007l-0.237,-0.021l-0.235,-0.036l-0.232,-0.049l-0.229,-0.064l-0.225,-0.077l-0.219,-0.091l-0.214,-0.103l-0.207,-0.117l-0.2,-0.128l-0.191,-0.141l-0.183,-0.152l-0.173,-0.162l-0.163,-0.173l-0.153,-0.182l-28.841,-36.707l-0.141,-0.191l-0.129,-0.199l-0.117,-0.207l-0.104,-0.214l-0.092,-0.219l-0.077,-0.224l-0.065,-0.229l-0.05,-0.232l-0.036,-0.235l-0.022,-0.237l-0.007,-0.237l0.007,-0.238l0.021,-0.236l0.035,-0.235l0.05,-0.233l0.063,-0.229l0.078,-0.224l0.09,-0.22l0.104,-0.214l0.116,-0.207l0.129,-0.199l0.14,-0.192l0.152,-0.183l0.163,-0.173l0.173,-0.163l0.182,-0.152l0.191,-0.141l0.199,-0.13l0.207,-0.117l0.214,-0.104l0.219,-0.091l0.224,-0.078l0.229,-0.064l0.232,-0.05l0.235,-0.036l0.237,-0.022l0.237,-0.008l0.238,0.007Z"/></g><g><path d="M285.711,103.085l-28.841,36.707" style="fill-rule:nonzero;"/><path d="M285.954,99.16l0.236,0.022l0.235,0.036l0.232,0.05l0.229,0.064l0.224,0.078l0.22,0.091l0.213,0.104l0.207,0.117l0.199,0.13l0.191,0.141l0.183,0.152l0.172,0.163l0.163,0.173l0.152,0.183l0.14,0.192l0.129,0.199l0.117,0.207l0.103,0.214l0.091,0.22l0.077,0.224l0.064,0.229l0.049,0.233l0.035,0.235l0.022,0.236l0.006,0.238l-0.007,0.237l-0.022,0.237l-0.036,0.235l-0.05,0.232l-0.064,0.228l-0.078,0.225l-0.091,0.219l-0.105,0.214l-0.117,0.206l-0.129,0.2l-0.141,0.191l-28.84,36.707l-0.153,0.182l-0.163,0.173l-0.173,0.162l-0.183,0.152l-0.191,0.141l-0.2,0.128l-0.207,0.117l-0.214,0.103l-0.219,0.091l-0.225,0.077l-0.229,0.064l-0.232,0.049l-0.235,0.036l-0.237,0.021l-0.237,0.007l-0.238,-0.008l-0.236,-0.022l-0.235,-0.036l-0.232,-0.05l-0.229,-0.064l-0.224,-0.078l-0.22,-0.091l-0.213,-0.104l-0.207,-0.117l-0.199,-0.13l-0.191,-0.141l-0.183,-0.152l-0.172,-0.163l-0.163,-0.173l-0.152,-0.183l-0.14,-0.192l-0.129,-0.199l-0.117,-0.207l-0.103,-0.214l-0.091,-0.22l-0.077,-0.224l-0.064,-0.229l-0.049,-0.233l-0.035,-0.235l-0.022,-0.236l-0.006,-0.238l0.007,-0.237l0.022,-0.237l0.036,-0.234l0.05,-0.233l0.064,-0.228l0.078,-0.225l0.091,-0.219l0.105,-0.214l0.117,-0.206l0.129,-0.2l0.141,-0.191l28.84,-36.707l0.153,-0.182l0.163,-0.173l0.173,-0.162l0.183,-0.152l0.191,-0.141l0.2,-0.128l0.207,-0.117l0.214,-0.103l0.219,-0.091l0.225,-0.077l0.229,-0.064l0.232,-0.049l0.235,-0.036l0.237,-0.021l0.237,-0.007l0.238,0.008Z"/></g><path d="M314.552,113.572c0,15.929 -12.912,28.841 -28.841,28.841c-15.927,0 -28.841,-12.912 -28.841,-28.841c0,-15.928 12.914,-28.84 28.841,-28.84c15.929,0 28.841,12.912 28.841,28.84Z" style="fill-rule:nonzero;"/><path d="M466.39,146.588l0,-2.623c-7.866,0 -13.108,-2.622 -18.354,-7.867c-5.242,-5.242 -6.553,-15.73 -1.31,-26.217c5.245,0 6.556,-5.244 6.556,-10.487c0,-5.245 -5.246,-3.934 -5.246,-9.177c0,-5.244 0,-10.487 5.246,-14.421c5.242,-3.932 7.865,-5.243 9.176,-7.864c1.311,-2.623 2.098,-24.909 2.098,-27.53c0,-2.624 -2.098,-6.556 -0.787,-7.866c1.311,-1.311 1.311,-2.622 2.621,-2.622c1.31,0 1.31,1.311 2.624,2.622c1.31,1.31 -0.787,5.242 -0.787,7.866c0,2.621 0.787,24.907 2.097,27.53c1.311,2.621 3.932,3.932 9.177,7.864c5.243,3.934 5.243,9.177 5.243,14.421c0,5.243 -5.243,5.243 -5.243,9.177c0,3.932 1.31,10.487 7.864,10.487c5.245,10.487 3.934,20.975 -1.311,26.217c-5.243,5.245 -14.419,7.867 -18.354,7.867l0,2.623m-5.767,-36.707c0,1.572 0.263,1.834 1.574,2.621l8.39,0c1.31,-0.787 1.572,-1.049 1.572,-2.621l-2.883,0l-0.262,0.785l-5.244,0l-0.262,-0.785l-2.885,0Zm-7.341,-1.31c0,3.931 -0.523,7.078 -1.572,7.078c-1.311,0 -1.575,-0.525 -1.575,-1.049c1.311,0 1.311,-2.098 0,-2.098c-1.311,0 -1.311,1.311 -1.311,1.837c0,0.523 0.526,2.095 2.622,2.095c2.098,0 3.147,-3.932 3.147,-7.863c0,-3.934 0.526,-7.079 1.575,-7.079c1.31,0 1.572,0.523 1.572,1.047c-1.311,0 -1.311,2.098 0,2.098c1.31,0 1.31,-1.311 1.31,-1.835c0,-0.525 -0.523,-2.098 -2.621,-2.098c-2.098,0 -3.147,3.933 -3.147,7.867m24.645,0c0,3.931 0.526,7.078 1.574,7.078c1.311,0 1.573,-0.525 1.573,-1.049c-1.311,0 -1.311,-2.098 0,-2.098c1.311,0 1.311,1.311 1.311,1.837c0,0.523 -0.524,2.095 -2.622,2.095c-2.098,0 -3.147,-3.932 -3.147,-7.863c0,-3.934 -0.523,-7.079 -1.572,-7.079c-1.31,0 -1.572,0.523 -1.572,1.047c1.311,0 1.311,2.098 0,2.098c-1.313,0 -1.313,-1.311 -1.313,-1.835c0,-0.525 0.526,-2.098 2.624,-2.098c2.095,0 3.144,3.933 3.144,7.867Z"/><path d="M599.249,113.401l91.207,0l0,31.725l-5.949,0l0,-11.897l-71.378,0l0,11.897l-13.88,0m1.984,-22.803l0,0.397l87.239,0l0,-0.397m-53.533,4.957l0,1.982l5.948,0l0,-1.982m37.672,-1.982l0,1.982l5.948,0l0,-1.982l-5.948,0m0.198,0.198l0,1.586l5.553,0l0,-1.586m-77.13,-2.18l0,5.946l2.975,0l0,-5.946l1.983,0l0,5.946l2.973,0l0,-5.946l-7.931,0m0.398,0.395l0,5.156l2.18,0l0,-5.156l2.775,0l0,5.156l2.182,0l0,-5.156m-1.586,-5.352l0,1.982l7.93,0l0,-1.982m23.793,-1.983l0,0.991l39.655,0l0,-0.991m-39.655,2.973l0,0.992l39.655,0l0,-0.992m-63.448,5.949l0,1.387l1.983,0l0,-1.387l0.397,0l0,1.387l1.982,0l0,-1.387l0.398,0l0,1.387l1.982,0l0,-1.387l0.396,0l0,1.387l1.984,0l0,-1.387m-9.122,2.974l0,1.388l1.983,0l0,-1.388l0.397,0l0,1.388l1.982,0l0,-1.388l0.398,0l0,1.388l1.982,0l0,-1.388l0.396,0l0,1.388l1.984,0l0,-1.388m14.671,-2.974l0,1.387l1.984,0l0,-1.387l0.396,0l0,1.387l1.982,0l0,-1.387l0.398,0l0,1.387l1.981,0l0,-1.387l0.398,0l0,1.387l1.982,0l0,-1.387l0.396,0l0,1.387l1.984,0l0,-1.387l0.396,0l0,1.387l1.982,0l0,-1.387l0.398,0l0,1.387l1.982,0l0,-1.387l0.395,0l0,1.387l1.985,0l0,-1.387l0.395,0l0,1.387l1.983,0l0,-1.387l0.397,0l0,1.387l1.982,0l0,-1.387l0.398,0l0,1.387l1.982,0l0,-1.387l0.396,0l0,1.387l1.984,0l0,-1.387m-28.156,2.974l0,1.388l1.984,0l0,-1.388l0.396,0l0,1.388l1.982,0l0,-1.388l0.398,0l0,1.388l1.981,0l0,-1.388l0.398,0l0,1.388l1.982,0l0,-1.388l0.396,0l0,1.388l1.984,0l0,-1.388l0.396,0l0,1.388l1.982,0l0,-1.388l0.398,0l0,1.388l1.982,0l0,-1.388l0.395,0l0,1.388l1.985,0l0,-1.388l0.395,0l0,1.388l1.983,0l0,-1.388l0.397,0l0,1.388l1.982,0l0,-1.388l0.398,0l0,1.388l1.982,0l0,-1.388l0.396,0l0,1.388l1.984,0l0,-1.388m-69.792,4.957l0,7.931l1.982,0l0,-7.931m1.982,0l0,7.931l1.984,0l0,-7.931" style="fill-rule:nonzero;"/><path d="M599.249,145.126l91.207,0l0,0.396l-91.207,0m15.862,-12.293l0,7.931l1.586,0l0,-7.931l1.587,0l0,7.931l1.587,0l0,-7.931l2.775,0l0,7.931l1.586,0l0,-7.931l1.587,0l0,7.931l1.585,0l0,-7.931l1.586,0l0,7.931l1.587,0l0,-7.931l2.775,0l0,7.931l1.587,0l0,-7.931l1.586,0l0,7.931l1.587,0l0,-7.931l2.775,0l0,7.931l1.587,0l0,-7.931l1.584,0l0,7.931l1.587,0l0,-7.931l1.587,0l0,7.931l1.586,0l0,-7.931l2.775,0l0,7.931l1.587,0l0,-7.931l1.586,0l0,7.931l1.587,0l0,-7.931l2.776,0l0,7.931l1.586,0l0,-7.931l1.585,0l0,7.931l1.586,0l0,-7.931l1.587,0l0,7.931l1.587,0l0,-7.931l2.775,0l0,7.931l1.586,0l0,-7.931l1.587,0l0,7.931l1.584,0l0,-7.931l2.778,0l0,7.931l1.585,0l0,-7.931l1.586,0l0,7.931l1.587,0l0,-7.931" style="fill-rule:nonzero;"/><path d="M608.726,45.445c-2.857,0 -3.538,2.858 -5.852,2.858c-2.178,0 -5.173,-1.225 -6.67,0.409c1.768,0.544 2.995,1.361 5.308,1.225c2.043,-0.272 3.812,-1.225 5.718,-1.77c2.994,-1.089 0.408,7.759 0.135,9.801c-1.361,7.487 -2.586,13.341 -3.81,19.33c0,-0.137 -0.274,-0.137 -0.409,-0.137c-0.272,0 -0.545,0.273 -0.681,0.544l-3.13,14.838c-0.136,0.545 0.544,1.089 0.952,0.816c-0.136,5.174 0.409,9.802 4.357,11.163c4.082,1.361 5.444,0 7.35,-2.041c3.539,-3.404 4.355,-12.933 8.439,-19.738c4.492,1.225 5.036,-2.859 0,-8.304c-3.267,-3.403 -4.764,-3.811 -7.623,-4.355c-2.722,-0.409 -1.225,3.13 -1.361,4.491c-0.299,2.723 -1.089,4.22 -2.178,8.032c-0.816,2.858 -1.633,5.988 -1.497,4.763c0.272,-3.538 2.177,-6.806 2.45,-10.753c0.272,-3.948 0.816,-9.392 0.816,-9.392c0,0 0.545,0.136 0.954,-0.273c0.409,-0.544 0.68,-2.995 0.271,-3.539c-0.407,-0.544 -0.952,-0.408 -0.952,-0.408c0.136,-1.361 0.136,-2.45 0.136,-2.45c1.634,0.545 1.906,-3.539 0.272,-3.404c0.273,-2.722 0.273,-5.171 0.409,-7.895c0,-2.178 -1.225,-3.675 -3.267,-3.675l-0.137,-0.136Zm4.765,26.135c1.225,0 4.764,2.45 5.717,3.54c2.177,2.314 3.675,5.308 2.722,5.989c-0.952,0.68 -4.355,-1.497 -6.67,-3.811c-2.177,-2.314 -3.266,-4.765 -2.314,-5.582c0.137,-0.136 0.273,-0.136 0.409,-0.136l0.136,0Z" style="fill-rule:nonzero;"/><path d="M680.476,67.219c1.261,1.261 2.522,2.522 2.522,6.303c0,5.043 -6.304,6.304 -7.186,9.204l-0.379,0.251c-1.26,-3.151 -4.412,0 -5.672,1.262c-1.261,1.26 -3.783,5.042 -0.379,6.428l-0.252,0.505c-3.782,2.522 -1.26,3.782 -5.042,7.564c-3.782,3.782 -10.085,2.521 -15.127,-2.522c-5.043,-5.042 -6.305,-11.345 -2.523,-15.127c3.783,-3.783 5.043,-1.261 7.565,-5.043l0.504,-0.253c1.386,3.405 5.169,0.883 6.429,-0.377c1.26,-1.26 4.412,-4.413 1.26,-5.673l0.253,-0.378c2.899,-0.883 4.16,-7.186 9.202,-7.186c3.782,0 5.043,1.26 6.304,2.522l11.976,-11.347l0,-0.63l-2.521,-2.522l0.63,-0.63l2.521,2.522l1.892,-1.892l-2.522,-2.52l0.63,-0.631l2.522,2.521l1.89,-1.261l0,-1.26l0.631,-0.63l1.261,0l1.26,-0.63l1.261,1.26l-0.63,1.26l0,1.261l-0.631,0.63l-1.26,0l-0.63,0.632l2.521,2.52l-0.631,0.63l-2.521,-2.521l-1.891,1.891l2.522,2.522l-0.631,0.63l-2.521,-2.522l-1.26,1.262l-11.347,11.975Zm-21.053,11.346c-0.63,0.631 -4.16,3.404 -4.16,1.261c1.261,0 1.261,-1.134 0.379,-1.134c-0.632,0 -1.262,1.386 -0.632,2.016c0.632,0.63 2.648,0.379 4.666,-1.512c0.63,-0.631 4.159,-3.405 4.159,-1.261c-1.26,0 -1.26,1.134 -0.377,1.134c0.63,0 1.26,-1.386 0.63,-2.016c-0.63,-0.63 -2.648,-0.379 -4.665,1.512Zm7.186,7.313c-0.631,0.63 -3.404,4.159 -1.261,4.159c0,-1.26 1.135,-1.26 1.135,-0.378c0,0.631 -1.386,1.261 -2.018,0.631c-0.63,-0.631 -0.377,-2.648 1.513,-4.665c0.631,-0.63 3.404,-4.16 1.261,-4.16c0,1.261 -1.135,1.261 -1.135,0.378c0,-0.631 1.388,-1.261 2.018,-0.631c0.63,0.631 0.378,2.648 -1.513,4.666Z"/><path d="M672.913,48.309c-1.135,-0.251 -1.135,3.278 -1.135,3.278l-1.324,0l19.792,45.636c0,0 1.766,-1.891 2.648,-1.513c0.882,0.378 1.387,3.152 1.387,3.152c0,0 1.26,1.513 2.646,0c1.388,-1.513 -7.942,-15.758 -10.589,-22.062c-2.647,-6.303 -9.328,-22.061 -11.976,-26.726c-0.63,-1.134 -1.134,-1.639 -1.513,-1.765l0.064,0Zm-0.253,4.539c0.504,0 1.134,0.378 1.765,2.017c0,0 14.624,33.029 15.884,36.181c1.386,3.152 -1.387,1.513 -1.387,1.513l-17.271,-39.333c0,0 0.379,-0.378 0.883,-0.378l0.126,0Z" style="fill-rule:nonzero;"/><rect x="33.969" y="306.943" width="680.121" height="46.445" style="fill:#fff;stroke:#000;stroke-width:1px;stroke-linecap:round;stroke-linejoin:round;stroke-miterlimit:1.5;"/><text x="332.786px" y="338.171px" style="font-family:'FiraSans-Light', 'Fira Sans', sans-serif;font-weight:300;font-size:20.849px;">M<tspan x="351.458px 357.938px 368.954px 377.138px 391.034px 399.746px " y="338.171px 338.171px 338.171px 338.171px 338.171px 338.171px ">ixture</tspan></text></svg>