<?xml version="1.0" encoding="UTF-8" standalone="no"?>
<!DOCTYPE svg PUBLIC "-//W3C//DTD SVG 1.1//EN" "http://www.w3.org/Graphics/SVG/1.1/DTD/svg11.dtd">
<svg width="100%" height="100%" viewBox="0 0 513 153" version="1.1" xmlns="http://www.w3.org/2000/svg" xmlns:xlink="http://www.w3.org/1999/xlink" xml:space="preserve" style="fill-rule:evenodd;clip-rule:evenodd;stroke-linecap:round;">
    <g transform="matrix(0.512235,0,0,0.512235,52.4529,62.9249)">
        <g transform="matrix(1,0,0,1,-102.4,-102.4)">
            <clipPath id="_clip1">
                <rect x="0" y="0" width="204.8" height="204.8"/>
            </clipPath>
            <g clip-path="url(#_clip1)">
                <path d="M85.332,8.535L119.465,8.535C125.867,8.535 125.867,14.934 125.867,14.934L125.012,61.867C125.012,61.867 119.465,64 102.398,64C85.332,64 80.215,61.867 80.215,61.867L78.934,14.934C78.934,14.934 78.934,8.535 85.332,8.535Z" style="fill:rgb(86,180,233);fill-rule:nonzero;"/>
                <path d="M78.934,64C78.934,64 85.332,66.133 102.398,66.133C119.465,66.133 125.867,64 125.867,64L125.012,72.535C125.012,72.535 119.465,74.668 102.398,74.668C85.332,74.668 79.785,72.535 79.785,72.535L78.934,64Z" style="fill:rgb(86,180,233);fill-rule:nonzero;"/>
                <path d="M81.066,74.668C81.066,74.668 89.602,76.375 102.398,76.375C115.199,76.375 123.734,74.668 123.734,74.668L122.879,98.988L102.398,114.773L81.922,98.988L81.066,74.668Z" style="fill:rgb(86,180,233);fill-rule:nonzero;"/>
                <path d="M82.773,108.801L98.559,120.746L98.559,126.293L84.055,134.398L82.773,108.801Z" style="fill:rgb(86,180,233);fill-rule:nonzero;"/>
                <path d="M106.238,121.172L122.027,109.227L120.746,134.828L106.238,126.293L106.238,121.172Z" style="fill:rgb(86,180,233);fill-rule:nonzero;"/>
                <path d="M87.465,140.801L102.398,132.266L117.332,140.801L87.465,140.801Z" style="fill:rgb(86,180,233);fill-rule:nonzero;"/>
                <path d="M84.48,149.332C84.48,149.332 89.602,150.187 102.398,150.187C115.199,150.187 120.32,149.332 120.32,149.332L120.32,150.613L102.398,162.988L84.48,150.613L84.48,149.332Z" style="fill:rgb(86,180,233);fill-rule:nonzero;"/>
                <path d="M105.812,174.934L105.812,168.961L107.094,168.105C115.199,168.105 119.895,165.121 119.895,165.121L113.922,175.359C113.922,175.359 110.934,177.066 108.801,177.066L105.812,174.934Z" style="fill:rgb(86,180,233);fill-rule:nonzero;"/>
                <path d="M84.906,165.121C84.906,165.121 89.602,168.105 97.707,168.105L98.988,168.961L98.988,174.934L96,177.066C93.867,177.066 90.879,175.359 90.879,175.359L84.906,165.121Z" style="fill:rgb(86,180,233);fill-rule:nonzero;"/>
                <path d="M81.066,136.535C81.066,136.535 51.199,136.535 51.199,140.801C51.199,145.066 102.398,145.066 102.398,145.066C102.398,145.066 157.867,145.066 157.867,140.801C157.867,136.535 123.734,136.535 123.734,136.535M64,89.602L72.535,145.066L68.266,200.535M140.801,89.602L132.266,145.066L136.535,200.535" style="fill:none;stroke:black;stroke-width:5.12px;"/>
                <path d="M64,89.602L102.398,119.465L140.801,89.602M102.398,119.465L102.398,128L72.535,145.066M102.398,128L132.266,145.066M72.535,146.773L102.398,168.105L102.398,176.641L68.266,202.238M132.266,146.773L102.398,168.105M102.398,176.641L136.535,202.238" style="fill:none;stroke:black;stroke-width:3.41px;stroke-linecap:butt;"/>
            </g>
        </g>
    </g>
    <g transform="matrix(0.614501,0,0,0.614501,179.331,62.9249)">
        <g transform="matrix(1,0,0,1,-102.4,-102.4)">
            <g>
                <path d="M162.133,68.266L162.133,187.734" style="fill:rgb(0,158,115);fill-rule:nonzero;"/>
                <path d="M162.946,61.918L163.481,62.01L164.007,62.147L164.519,62.328L165.014,62.551L165.489,62.816L165.939,63.12L166.361,63.462L166.754,63.838L167.112,64.245L167.435,64.682L167.72,65.145L167.965,65.63L168.167,66.134L168.326,66.653L168.441,67.184L168.51,67.723L168.533,68.266L168.533,187.734L168.51,188.277L168.441,188.816L168.326,189.347L168.167,189.866L167.965,190.37L167.72,190.855L167.435,191.318L167.112,191.755L166.754,192.162L166.361,192.538L165.939,192.88L165.489,193.184L165.014,193.449L164.519,193.672L164.007,193.853L163.481,193.99L162.946,194.082L162.405,194.128L161.861,194.128L161.32,194.082L160.785,193.99L160.259,193.853L159.747,193.672L159.252,193.449L158.777,193.184L158.327,192.88L157.905,192.538L157.512,192.162L157.154,191.755L156.831,191.318L156.546,190.855L156.301,190.37L156.099,189.866L155.94,189.347L155.825,188.816L155.756,188.277L155.733,187.734L155.733,68.266L155.756,67.723L155.825,67.184L155.94,66.653L156.099,66.134L156.301,65.63L156.546,65.145L156.831,64.682L157.154,64.245L157.512,63.838L157.905,63.462L158.327,63.12L158.777,62.816L159.252,62.551L159.747,62.328L160.259,62.147L160.785,62.01L161.32,61.918L161.861,61.872L162.405,61.872L162.946,61.918Z"/>
            </g>
            <path d="M162.133,72.535L192,81.066L132.266,81.066L162.133,72.535Z" style="fill:rgb(0,158,115);fill-rule:nonzero;stroke:black;stroke-width:4.27px;stroke-linecap:butt;"/>
            <path d="M162.133,98.133L192,89.602L132.266,89.602L162.133,98.133Z" style="fill:rgb(0,158,115);fill-rule:nonzero;stroke:black;stroke-width:4.27px;stroke-linecap:butt;"/>
            <path d="M25.602,110.934L64,110.934C66.363,110.934 68.266,112.836 68.266,115.199L68.266,140.801C68.266,143.164 66.363,145.066 64,145.066L25.602,145.066C23.234,145.066 21.332,143.164 21.332,140.801L21.332,115.199C21.332,112.836 23.234,110.934 25.602,110.934Z" style="fill:rgb(0,158,115);fill-rule:nonzero;"/>
            <path d="M140.801,110.934L179.199,110.934C181.562,110.934 183.465,112.836 183.465,115.199L183.465,140.801C183.465,143.164 181.562,145.066 179.199,145.066L140.801,145.066C138.438,145.066 136.535,143.164 136.535,140.801L136.535,115.199C136.535,112.836 138.438,110.934 140.801,110.934Z" style="fill:rgb(0,158,115);fill-rule:nonzero;"/>
            <g>
                <path d="M42.668,51.199L42.668,187.734" style="fill:rgb(0,158,115);fill-rule:nonzero;"/>
                <path d="M43.527,44.857L44.092,44.959L44.646,45.112L45.183,45.314L45.701,45.563L46.194,45.858L46.658,46.195L47.091,46.573L47.488,46.988L47.846,47.437L48.162,47.916L48.434,48.422L48.66,48.95L48.837,49.496L48.965,50.056L49.042,50.625L49.068,51.199L49.068,187.734L49.042,188.308L48.965,188.877L48.837,189.437L48.66,189.983L48.434,190.511L48.162,191.017L47.846,191.496L47.488,191.945L47.091,192.36L46.658,192.738L46.194,193.075L45.701,193.37L45.183,193.619L44.646,193.821L44.092,193.974L43.527,194.076L42.955,194.128L42.381,194.128L41.809,194.076L41.244,193.974L40.69,193.821L40.153,193.619L39.635,193.37L39.142,193.075L38.678,192.738L38.245,192.36L37.848,191.945L37.49,191.496L37.174,191.017L36.902,190.511L36.676,189.983L36.499,189.437L36.371,188.877L36.294,188.308L36.268,187.734L36.268,51.199L36.294,50.625L36.371,50.056L36.499,49.496L36.676,48.95L36.902,48.422L37.174,47.916L37.49,47.437L37.848,46.988L38.245,46.573L38.678,46.195L39.142,45.858L39.635,45.563L40.153,45.314L40.69,45.112L41.244,44.959L41.809,44.857L42.381,44.805L42.955,44.805L43.527,44.857Z"/>
            </g>
            <path d="M76.055,58.297C74.094,67.516 57.559,71.812 39.117,67.895C20.68,63.973 7.32,53.324 9.277,44.102C11.238,34.883 27.777,30.586 46.215,34.508C64.656,38.426 78.016,49.078 76.055,58.297Z" style="fill:rgb(0,158,115);fill-rule:nonzero;"/>
            <g>
                <path d="M102.398,128L149.332,187.734" style="fill:rgb(0,158,115);fill-rule:nonzero;"/>
                <path d="M102.775,121.611L103.161,121.646L103.543,121.703L103.921,121.784L104.293,121.887L104.659,122.013L105.016,122.16L105.364,122.329L105.701,122.518L106.026,122.728L106.338,122.956L106.635,123.204L106.917,123.468L107.183,123.749L107.43,124.046L154.364,183.78L154.594,184.091L154.804,184.415L154.995,184.752L155.164,185.099L155.313,185.456L155.44,185.821L155.544,186.194L155.626,186.572L155.684,186.954L155.72,187.339L155.732,187.725L155.721,188.111L155.686,188.497L155.629,188.879L155.548,189.257L155.445,189.629L155.319,189.995L155.172,190.352L155.003,190.7L154.814,191.037L154.604,191.362L154.375,191.674L154.128,191.971L153.864,192.253L153.583,192.519L153.286,192.766L152.975,192.996L152.651,193.206L152.314,193.397L151.967,193.566L151.61,193.715L151.245,193.842L150.872,193.946L150.494,194.028L150.112,194.086L149.727,194.122L149.341,194.134L148.955,194.123L148.569,194.088L148.187,194.031L147.809,193.95L147.437,193.847L147.071,193.721L146.714,193.574L146.366,193.405L146.029,193.216L145.704,193.006L145.392,192.778L145.095,192.53L144.813,192.266L144.547,191.985L144.3,191.688L97.366,131.954L97.136,131.643L96.926,131.319L96.735,130.982L96.566,130.635L96.417,130.278L96.29,129.913L96.186,129.54L96.104,129.162L96.046,128.78L96.01,128.395L95.998,128.009L96.009,127.623L96.044,127.237L96.101,126.855L96.182,126.477L96.285,126.105L96.411,125.739L96.558,125.382L96.727,125.034L96.916,124.697L97.126,124.372L97.354,124.06L97.602,123.763L97.866,123.481L98.147,123.215L98.444,122.968L98.755,122.738L99.079,122.528L99.416,122.337L99.763,122.168L100.12,122.019L100.485,121.892L100.858,121.788L101.236,121.706L101.618,121.648L102.003,121.612L102.389,121.6L102.775,121.611Z"/>
            </g>
            <g>
                <path d="M102.398,128L55.465,187.734" style="fill:rgb(0,158,115);fill-rule:nonzero;"/>
                <path d="M102.793,121.612L103.178,121.648L103.56,121.706L103.938,121.788L104.311,121.892L104.676,122.019L105.033,122.168L105.38,122.337L105.717,122.528L106.041,122.738L106.352,122.968L106.649,123.215L106.93,123.481L107.194,123.763L107.441,124.06L107.67,124.372L107.88,124.697L108.069,125.034L108.238,125.381L108.385,125.739L108.511,126.104L108.614,126.477L108.695,126.855L108.752,127.237L108.787,127.622L108.798,128.009L108.786,128.395L108.75,128.78L108.692,129.162L108.61,129.54L108.506,129.913L108.379,130.278L108.231,130.635L108.061,130.982L107.87,131.319L107.66,131.643L107.43,131.954L60.497,191.688L60.25,191.985L59.984,192.266L59.702,192.53L59.405,192.777L59.093,193.006L58.768,193.216L58.431,193.405L58.084,193.574L57.726,193.721L57.361,193.847L56.988,193.95L56.61,194.031L56.228,194.088L55.843,194.123L55.456,194.134L55.07,194.122L54.685,194.086L54.303,194.028L53.925,193.946L53.552,193.842L53.187,193.715L52.83,193.566L52.483,193.397L52.146,193.206L51.822,192.996L51.511,192.766L51.214,192.519L50.933,192.253L50.669,191.971L50.422,191.674L50.193,191.362L49.983,191.037L49.794,190.7L49.625,190.353L49.478,189.995L49.352,189.63L49.249,189.257L49.168,188.879L49.111,188.497L49.076,188.112L49.065,187.725L49.077,187.339L49.113,186.954L49.171,186.572L49.253,186.194L49.357,185.821L49.484,185.456L49.633,185.099L49.802,184.752L49.993,184.415L50.203,184.091L50.433,183.78L97.366,124.046L97.613,123.749L97.879,123.468L98.161,123.204L98.458,122.957L98.77,122.728L99.095,122.518L99.432,122.329L99.779,122.16L100.137,122.013L100.502,121.887L100.875,121.784L101.253,121.703L101.635,121.646L102.02,121.611L102.407,121.6L102.793,121.612Z"/>
            </g>
            <path d="M149.332,145.066C149.332,170.988 128.32,192 102.398,192C76.48,192 55.465,170.988 55.465,145.066C55.465,119.145 76.48,98.133 102.398,98.133C128.32,98.133 149.332,119.145 149.332,145.066Z" style="fill:rgb(0,158,115);fill-rule:nonzero;"/>
        </g>
    </g>
    <g transform="matrix(0.614501,0,0,0.614501,323.376,66.2387)">
        <g transform="matrix(1,0,0,1,-102.4,-102.4)">
            <path d="M100.266,200.535L100.266,196.266C87.465,196.266 78.934,192 70.398,183.465C61.867,174.934 59.734,157.867 68.266,140.801C76.801,140.801 78.934,132.266 78.934,123.734C78.934,115.199 70.398,117.332 70.398,108.801C70.398,100.266 70.398,91.734 78.934,85.332C87.465,78.934 91.734,76.801 93.867,72.535C96,68.266 97.281,32 97.281,27.734C97.281,23.465 93.867,17.066 96,14.934C98.133,12.801 98.133,10.668 100.266,10.668C102.398,10.668 102.398,12.801 104.535,14.934C106.668,17.066 103.254,23.465 103.254,27.734C103.254,32 104.535,68.266 106.668,72.535C108.801,76.801 113.066,78.934 121.602,85.332C130.133,91.734 130.133,100.266 130.133,108.801C130.133,117.332 121.602,117.332 121.602,123.734C121.602,130.133 123.734,140.801 134.398,140.801C142.934,157.867 140.801,174.934 132.266,183.465C123.734,192 108.801,196.266 102.398,196.266L102.398,200.535M93.012,140.801C93.012,143.359 93.441,143.785 95.574,145.066L109.227,145.066C111.359,143.785 111.785,143.359 111.785,140.801L107.094,140.801L106.668,142.078L98.133,142.078L97.707,140.801L93.012,140.801ZM81.066,138.668C81.066,145.066 80.215,150.187 78.508,150.187C76.375,150.187 75.945,149.332 75.945,148.48C78.078,148.48 78.078,145.066 75.945,145.066C73.812,145.066 73.812,147.199 73.812,148.055C73.812,148.906 74.668,151.465 78.078,151.465C81.492,151.465 83.199,145.066 83.199,138.668C83.199,132.266 84.055,127.148 85.762,127.148C87.895,127.148 88.32,128 88.32,128.852C86.188,128.852 86.188,132.266 88.32,132.266C90.453,132.266 90.453,130.133 90.453,129.281C90.453,128.426 89.602,125.867 86.188,125.867C84.081,125.867 82.624,128.304 81.817,131.674C81.316,133.765 81.066,136.216 81.066,138.668M121.172,138.668C121.172,145.066 122.027,150.187 123.734,150.187C125.867,150.187 126.293,149.332 126.293,148.48C124.16,148.48 124.16,145.066 126.293,145.066C128.426,145.066 128.426,147.199 128.426,148.055C128.426,148.906 127.574,151.465 124.16,151.465C121.479,151.465 119.851,147.52 119.275,142.727C119.118,141.416 119.039,140.042 119.039,138.668C119.039,132.266 118.188,127.148 116.48,127.148C114.348,127.148 113.922,128 113.922,128.852C116.055,128.852 116.055,132.266 113.922,132.266C111.785,132.266 111.785,130.133 111.785,129.281C111.785,128.426 112.641,125.867 116.055,125.867C119.465,125.867 121.172,132.266 121.172,138.668Z" style="fill:rgb(213,94,0);"/>
        </g>
    </g>
    <g transform="matrix(0.464702,0,0,0.464702,455.096,105.048)">
        <g transform="matrix(1,0,0,1,-102.4,-102.4)">
            <path d="M4.266,68.266L200.535,68.266L200.535,136.535L187.734,136.535L187.734,110.934L34.133,110.934L34.133,136.535L4.266,136.535M8.535,87.465L8.535,88.32L196.266,88.32L196.266,87.465M81.066,98.133L81.066,102.398L93.867,102.398L93.867,98.133M174.934,93.867L174.934,98.133L187.734,98.133L187.734,93.867L174.934,93.867M175.359,94.293L175.359,97.707L187.309,97.707L187.309,94.293M21.332,89.602L21.332,102.398L27.734,102.398L27.734,89.602L32,89.602L32,102.398L38.398,102.398L38.398,89.602L21.332,89.602M22.188,90.453L22.188,101.547L26.879,101.547L26.879,90.453L32.852,90.453L32.852,101.547L37.547,101.547L37.547,90.453M34.133,78.934L34.133,83.199L51.199,83.199L51.199,78.934M102.398,74.668L102.398,76.801L187.734,76.801L187.734,74.668M102.398,81.066L102.398,83.199L187.734,83.199L187.734,81.066M51.199,93.867L51.199,96.852L55.465,96.852L55.465,93.867L56.32,93.867L56.32,96.852L60.586,96.852L60.586,93.867L61.441,93.867L61.441,96.852L65.707,96.852L65.707,93.867L66.559,93.867L66.559,96.852L70.828,96.852L70.828,93.867M51.199,100.266L51.199,103.254L55.465,103.254L55.465,100.266L56.32,100.266L56.32,103.254L60.586,103.254L60.586,100.266L61.441,100.266L61.441,103.254L65.707,103.254L65.707,100.266L66.559,100.266L66.559,103.254L70.828,103.254L70.828,100.266M102.398,93.867L102.398,96.852L106.668,96.852L106.668,93.867L107.52,93.867L107.52,96.852L111.785,96.852L111.785,93.867L112.641,93.867L112.641,96.852L116.906,96.852L116.906,93.867L117.762,93.867L117.762,96.852L122.027,96.852L122.027,93.867L122.879,93.867L122.879,96.852L127.148,96.852L127.148,93.867L128,93.867L128,96.852L132.266,96.852L132.266,93.867L133.121,93.867L133.121,96.852L137.387,96.852L137.387,93.867L138.238,93.867L138.238,96.852L142.508,96.852L142.508,93.867L143.359,93.867L143.359,96.852L147.625,96.852L147.625,93.867L148.48,93.867L148.48,96.852L152.746,96.852L152.746,93.867L153.602,93.867L153.602,96.852L157.867,96.852L157.867,93.867L158.719,93.867L158.719,96.852L162.988,96.852L162.988,93.867M102.398,100.266L102.398,103.254L106.668,103.254L106.668,100.266L107.52,100.266L107.52,103.254L111.785,103.254L111.785,100.266L112.641,100.266L112.641,103.254L116.906,103.254L116.906,100.266L117.762,100.266L117.762,103.254L122.027,103.254L122.027,100.266L122.879,100.266L122.879,103.254L127.148,103.254L127.148,100.266L128,100.266L128,103.254L132.266,103.254L132.266,100.266L133.121,100.266L133.121,103.254L137.387,103.254L137.387,100.266L138.238,100.266L138.238,103.254L142.508,103.254L142.508,100.266L143.359,100.266L143.359,103.254L147.625,103.254L147.625,100.266L148.48,100.266L148.48,103.254L152.746,103.254L152.746,100.266L153.602,100.266L153.602,103.254L157.867,103.254L157.867,100.266L158.719,100.266L158.719,103.254L162.988,103.254L162.988,100.266M12.801,110.934L12.801,128L17.066,128L17.066,110.934M21.332,110.934L21.332,128L25.602,128L25.602,110.934" style="fill:rgb(204,121,167);fill-rule:nonzero;"/>
            <path d="M4.266,136.535L200.535,136.535L200.535,137.387L4.266,137.387M38.398,110.934L38.398,128L41.812,128L41.812,110.934L45.227,110.934L45.227,128L48.641,128L48.641,110.934L54.613,110.934L54.613,128L58.027,128L58.027,110.934L61.441,110.934L61.441,128L64.852,128L64.852,110.934L68.266,110.934L68.266,128L71.68,128L71.68,110.934L77.652,110.934L77.652,128L81.066,128L81.066,110.934L84.48,110.934L84.48,128L87.895,128L87.895,110.934L93.867,110.934L93.867,128L97.281,128L97.281,110.934L100.691,110.934L100.691,128L104.105,128L104.105,110.934L107.52,110.934L107.52,128L110.934,128L110.934,110.934L116.906,110.934L116.906,128L120.32,128L120.32,110.934L123.734,110.934L123.734,128L127.148,128L127.148,110.934L133.121,110.934L133.121,128L136.535,128L136.535,110.934L139.945,110.934L139.945,128L143.359,128L143.359,110.934L146.773,110.934L146.773,128L150.188,128L150.188,110.934L156.16,110.934L156.16,128L159.574,128L159.574,110.934L162.988,110.934L162.988,128L166.398,128L166.398,110.934L172.375,110.934L172.375,128L175.785,128L175.785,110.934L179.199,110.934L179.199,128L182.613,128L182.613,110.934" style="fill-rule:nonzero;"/>
        </g>
    </g>
    <g transform="matrix(0.319036,0,0,0.319036,418.971,51.7205)">
        <g transform="matrix(1,0,0,1,-102.4,-102.4)">
            <path d="M102.398,6.828C93.441,6.828 91.309,15.785 84.055,15.785C77.227,15.785 67.84,11.945 63.148,17.066C68.691,18.773 72.535,21.332 79.785,20.906C86.188,20.055 91.734,17.066 97.707,15.359C107.094,11.945 98.988,39.68 98.133,46.078C93.867,69.547 90.027,87.895 86.188,106.668C86.188,106.238 85.332,106.238 84.906,106.238C84.055,106.238 83.199,107.094 82.773,107.945L72.961,154.453C72.535,156.16 74.668,157.867 75.945,157.012C75.52,173.227 77.227,187.734 89.602,192C102.398,196.266 106.668,192 112.641,185.602C123.734,174.934 126.293,145.066 139.094,123.734C153.172,127.574 154.879,114.773 139.094,97.707C128.852,87.039 124.16,85.762 115.199,84.055C106.668,82.773 111.359,93.867 110.934,98.133C109.996,106.668 107.52,111.359 104.105,123.309C101.547,132.266 98.988,142.078 99.414,138.238C100.266,127.148 106.238,116.906 107.094,104.535C107.945,92.16 109.652,75.094 109.652,75.094C109.652,75.094 111.359,75.52 112.641,74.238C113.922,72.535 114.773,64.852 113.492,63.148C112.215,61.441 110.508,61.867 110.508,61.867C110.934,57.602 110.934,54.187 110.934,54.187C116.055,55.895 116.906,43.094 111.785,43.52C112.641,34.988 112.641,27.309 113.066,18.773C113.066,11.945 109.227,7.254 102.828,7.254L102.398,6.828ZM117.332,88.746C121.172,88.746 132.266,96.426 135.254,99.84C142.078,107.094 146.773,116.48 143.785,118.613C140.801,120.746 130.133,113.922 122.879,106.668C116.055,99.414 112.641,91.734 115.625,89.172C116.055,88.746 116.48,88.746 116.906,88.746L117.332,88.746Z" style="fill:rgb(204,121,167);fill-rule:nonzero;"/>
        </g>
    </g>
    <g transform="matrix(0.295466,0,0,0.295466,481.895,49.307)">
        <g transform="matrix(1,0,0,1,-102.4,-102.4)">
            <path d="M132.266,81.066C136.535,85.332 140.801,89.602 140.801,102.398C140.801,119.465 119.465,123.734 116.48,133.547L115.199,134.398C110.934,123.734 100.266,134.398 96,138.668C91.734,142.934 83.199,155.734 94.719,160.426L93.867,162.133C81.066,170.668 89.602,174.934 76.801,187.734C64,200.535 42.668,196.266 25.602,179.199C8.535,162.133 4.266,140.801 17.066,128C29.867,115.199 34.133,123.734 42.668,110.934L44.375,110.078C49.066,121.602 61.867,113.066 66.133,108.801C70.398,104.535 81.066,93.867 70.398,89.602L71.254,88.32C81.066,85.332 85.332,64 102.398,64C115.199,64 119.465,68.266 123.734,72.535L164.266,34.133L164.266,32L155.734,23.465L157.867,21.332L166.398,29.867L172.801,23.465L164.266,14.934L166.398,12.801L174.934,21.332L181.332,17.066L181.332,12.801L183.465,10.668L187.734,10.668L192,8.535L196.266,12.801L194.133,17.066L194.133,21.332L192,23.465L187.734,23.465L185.602,25.602L194.133,34.133L192,36.266L183.465,27.734L177.066,34.133L185.602,42.668L183.465,44.801L174.934,36.266L170.668,40.535L132.266,81.066ZM61.012,119.465C58.879,121.602 46.934,130.988 46.934,123.734C51.199,123.734 51.199,119.895 48.215,119.895C46.078,119.895 43.945,124.586 46.078,126.719C48.215,128.852 55.039,128 61.867,121.602C64,119.465 75.945,110.078 75.945,117.332C71.68,117.332 71.68,121.172 74.668,121.172C76.801,121.172 78.934,116.48 76.801,114.348C74.668,112.215 67.84,113.066 61.012,119.465ZM85.332,144.215C83.199,146.348 73.812,158.293 81.066,158.293C81.066,154.027 84.906,154.027 84.906,157.012C84.906,159.148 80.215,161.281 78.078,159.148C75.945,157.012 76.801,150.187 83.199,143.359C85.332,141.227 94.719,129.281 87.465,129.281C87.465,133.547 83.625,133.547 83.625,130.559C83.625,128.426 88.32,126.293 90.453,128.426C92.586,130.559 91.734,137.387 85.332,144.215Z" style="fill:rgb(204,121,167);"/>
            <path d="M106.668,17.066C102.828,16.215 102.828,28.16 102.828,28.16L98.348,28.16L165.332,182.613C165.332,182.613 171.309,176.215 174.293,177.492C177.281,178.773 178.988,188.16 178.988,188.16C178.988,188.16 183.254,193.281 187.945,188.16C192.641,183.039 161.066,134.828 152.105,113.492C143.148,92.16 120.535,38.828 111.574,23.039C109.441,19.199 107.734,17.492 106.453,17.066L106.668,17.066ZM105.812,32.426C107.52,32.426 109.652,33.707 111.785,39.254C111.785,39.254 161.281,151.039 165.547,161.707C170.238,172.375 160.852,166.828 160.852,166.828L102.398,33.707C102.398,33.707 103.68,32.426 105.387,32.426L105.812,32.426Z" style="fill-rule:nonzero;"/>
        </g>
    </g>
</svg>
